<?xml version="1.0" encoding="UTF-8"?>
<svg xmlns="http://www.w3.org/2000/svg" width="932" height="490" viewBox="0 0 932 490" role="img">
<style>

    text { font-family: Arial, Helvetica, sans-serif; fill: #0f172a; }
    .panel { fill: #ffffff; stroke: #d8dee9; stroke-width: 1.2; }
    .title { font-size: 24px; font-weight: 700; }
    .caption { font-size: 13px; fill: #475569; }
    .section-title { font-size: 16px; font-weight: 700; }
    .tick { font-size: 11px; fill: #64748b; text-anchor: end; }
    .axis line, .axis { stroke: #94a3b8; stroke-width: 1.1; }
    .grid { stroke: #e2e8f0; stroke-width: 1; }
    
    .total-line { fill: none; stroke: #0f172a; stroke-width: 3.2; }
    .node-line { fill: none; stroke-width: 1.7; opacity: 0.86; }
    .legend { font-size: 12px; fill: #475569; }
    .end { text-anchor: end; }
    .reference-line { stroke-width: 1.6; stroke-dasharray: 6 5; }
    .reference-line.rop { stroke: #dc2626; }
    .reference-line.stock { stroke: #16a34a; }
    .reference-label { font-size: 11px; font-weight: 700; fill: #334155; }
    
</style>

    <rect class="panel" x="24" y="24" width="884" height="442" rx="16" />
    <text x="48" y="64" class="title">Daily inventory dynamics</text>
    <text x="48" y="90.0" class="caption">Published lost-sales policy, seed 0. First 120 of 359 simulated days shown for legibility. Node 2</text><text x="48" y="106.0" class="caption">(thick line) reorders up to its 643-unit base stock (upper dashed line) whenever inventory</text><text x="48" y="122.0" class="caption">position falls to its 276-unit reorder point (lower dashed line).</text>
    <line x1="72" y1="150.0" x2="808" y2="150.0" class="grid" /><line x1="72" y1="212.5" x2="808" y2="212.5" class="grid" /><line x1="72" y1="275.0" x2="808" y2="275.0" class="grid" /><line x1="72" y1="337.5" x2="808" y2="337.5" class="grid" /><line x1="72" y1="400.0" x2="808" y2="400.0" class="grid" /><line x1="72" y1="400" x2="808" y2="400" class="axis" /><line x1="72" y1="150" x2="72" y2="400" class="axis" /><text x="60" y="156" class="tick">4470</text><text x="60" y="400" class="tick">0</text><text x="72" y="424" class="tick">day 1</text><text x="808" y="424" class="tick end">day 120</text><polyline class="total-line" points="72.0,150.0 78.2,152.8 84.4,156.2 90.6,164.2 96.7,170.9 102.9,174.6 109.1,180.0 115.3,184.2 121.5,190.9 127.7,197.0 133.8,199.5 140.0,203.1 146.2,205.1 152.4,207.4 158.6,211.0 164.8,216.0 171.0,241.9 177.1,246.0 183.3,247.5 189.5,254.8 195.7,246.6 201.9,272.8 208.1,269.0 214.3,272.0 220.4,274.9 226.6,260.2 232.8,269.1 239.0,273.1 245.2,292.8 251.4,295.5 257.5,351.3 263.7,355.1 269.9,359.1 276.1,362.7 282.3,365.9 288.5,237.5 294.7,245.8 300.8,202.2 307.0,211.6 313.2,214.0 319.4,226.1 325.6,234.6 331.8,241.3 337.9,245.5 344.1,229.9 350.3,232.8 356.5,261.2 362.7,275.6 368.9,280.3 375.1,287.4 381.2,271.7 387.4,273.9 393.6,276.6 399.8,281.1 406.0,291.4 412.2,293.4 418.4,300.6 424.5,308.9 430.7,336.6 436.9,338.8 443.1,344.6 449.3,355.3 455.5,246.8 461.6,297.5 467.8,299.1 474.0,303.1 480.2,298.8 486.4,301.2 492.6,311.9 498.8,287.8 504.9,293.0 511.1,272.6 517.3,279.8 523.5,284.9 529.7,290.1 535.9,293.0 542.1,324.4 548.2,238.2 554.4,253.4 560.6,257.6 566.8,260.7 573.0,234.6 579.2,240.8 585.3,248.8 591.5,251.9 597.7,275.2 603.9,279.0 610.1,338.5 616.3,342.5 622.5,352.3 628.6,357.7 634.8,319.3 641.0,328.9 647.2,332.5 653.4,309.4 659.6,215.1 665.7,216.4 671.9,215.8 678.1,217.9 684.3,202.6 690.5,206.5 696.7,208.4 702.9,216.4 709.0,218.5 715.2,222.9 721.4,225.2 727.6,238.3 733.8,263.0 740.0,286.7 746.2,288.9 752.3,315.0 758.5,317.5 764.7,335.4 770.9,314.5 777.1,318.4 783.3,321.1 789.4,323.2 795.6,231.1 801.8,232.2 808.0,240.3" /><polyline class="node-line" stroke="#2563eb" stroke-width="1.5" opacity="0.4" points="72.0,275.2 78.2,276.4 84.4,279.0 90.6,280.5 96.7,284.5 102.9,286.3 109.1,289.5 115.3,289.6 121.5,292.5 127.7,295.1 133.8,295.2 140.0,296.6 146.2,297.7 152.4,298.0 158.6,299.9 164.8,300.2 171.0,301.8 177.1,304.9 183.3,305.2 189.5,309.7 195.7,310.8 201.9,333.8 208.1,334.7 214.3,335.5 220.4,335.8 226.6,336.1 232.8,338.5 239.0,338.7 245.2,340.6 251.4,341.7 257.5,394.6 263.7,396.4 269.9,396.9 276.1,400.0 282.3,400.0 288.5,267.2 294.7,274.1 300.8,274.4 307.0,282.1 313.2,283.3 319.4,308.0 325.6,312.6 331.8,321.8 337.9,324.6 344.1,326.8 350.3,327.1 356.5,329.1 362.7,336.6 368.9,339.3 375.1,341.3 381.2,344.7 387.4,346.1 393.6,347.8 399.8,349.4 406.0,356.3 412.2,356.9 418.4,359.5 424.5,366.6 430.7,390.6 436.9,390.7 443.1,392.4 449.3,392.5 455.5,295.7 461.6,344.2 467.8,344.9 474.0,345.3 480.2,347.3 486.4,348.0 492.6,349.7 498.8,350.5 504.9,351.3 511.1,352.0 517.3,358.1 523.5,362.8 529.7,364.2 535.9,364.4 542.1,392.3 548.2,300.6 554.4,304.6 560.6,306.8 566.8,308.2 573.0,309.9 579.2,312.4 585.3,316.5 591.5,317.9 597.7,318.7 603.9,319.5 610.1,375.7 616.3,378.0 622.5,384.8 628.6,384.8 634.8,391.2 641.0,400.0 647.2,400.0 653.4,400.0 659.6,296.4 665.7,296.9 671.9,297.7 678.1,297.9 684.3,300.9 690.5,303.2 696.7,303.7 702.9,308.2 709.0,308.5 715.2,309.5 721.4,310.6 727.6,316.2 733.8,329.9 740.0,351.5 746.2,353.4 752.3,353.7 758.5,361.9 764.7,400.0 770.9,400.0 777.1,400.0 783.3,400.0 789.4,400.0 795.6,305.6 801.8,305.8 808.0,308.5" /><polyline class="node-line" stroke="#16a34a" stroke-width="3.2" opacity="1.0" points="72.0,368.5 78.2,368.8 84.4,369.1 90.6,370.4 96.7,372.8 102.9,373.3 109.1,374.6 115.3,377.4 121.5,378.5 127.7,379.0 133.8,379.9 140.0,380.0 146.2,380.2 152.4,380.4 158.6,381.5 164.8,382.2 171.0,382.4 177.1,383.1 183.3,383.3 189.5,384.1 195.7,387.3 201.9,389.6 208.1,391.0 214.3,392.8 220.4,393.1 226.6,373.2 232.8,374.0 239.0,376.2 245.2,376.7 251.4,377.0 257.5,377.4 263.7,377.4 269.9,379.5 276.1,379.7 282.3,379.9 288.5,383.5 294.7,383.5 300.8,383.6 307.0,384.6 313.2,385.1 319.4,385.8 325.6,386.9 331.8,389.3 337.9,389.9 344.1,369.4 350.3,369.8 356.5,371.9 362.7,372.4 368.9,373.1 375.1,376.4 381.2,378.9 387.4,379.4 393.6,379.7 399.8,379.7 406.0,382.7 412.2,382.7 418.4,384.8 424.5,385.1 430.7,386.1 436.9,386.8 443.1,387.9 449.3,388.0 455.5,367.9 461.6,368.2 467.8,368.3 474.0,370.7 480.2,371.4 486.4,372.5 492.6,377.5 498.8,379.7 504.9,382.6 511.1,383.0 517.3,383.0 523.5,383.2 529.7,386.7 535.9,389.1 542.1,390.8 548.2,392.9 554.4,393.7 560.6,394.9 566.8,396.1 573.0,375.9 579.2,377.1 585.3,377.2 591.5,378.4 597.7,379.1 603.9,380.1 610.1,381.1 616.3,381.6 622.5,381.7 628.6,385.2 634.8,386.3 641.0,387.0 647.2,390.5 653.4,391.0 659.6,391.2 665.7,391.3 671.9,396.0 678.1,396.8 684.3,376.5 690.5,377.1 696.7,378.2 702.9,379.4 709.0,379.7 715.2,380.1 721.4,380.4 727.6,385.2 733.8,385.8 740.0,386.4 746.2,386.5 752.3,386.6 758.5,388.0 764.7,367.2 770.9,367.4 777.1,368.0 783.3,369.1 789.4,369.2 795.6,369.7 801.8,369.8 808.0,371.7" /><polyline class="node-line" stroke="#f59e0b" stroke-width="1.5" opacity="0.4" points="72.0,352.9 78.2,352.9 84.4,352.9 90.6,352.9 96.7,352.9 102.9,352.9 109.1,352.9 115.3,352.9 121.5,352.9 127.7,352.9 133.8,352.9 140.0,352.9 146.2,352.9 152.4,352.9 158.6,352.9 164.8,352.9 171.0,375.0 177.1,375.0 183.3,375.0 189.5,375.0 195.7,383.3 201.9,383.3 208.1,383.3 214.3,383.3 220.4,383.3 226.6,383.3 232.8,383.3 239.0,383.3 245.2,400.0 251.4,400.0 257.5,400.0 263.7,400.0 269.9,400.0 276.1,400.0 282.3,400.0 288.5,400.0 294.7,400.0 300.8,354.2 307.0,354.2 313.2,354.2 319.4,362.2 325.6,362.2 331.8,362.2 337.9,362.2 344.1,362.2 350.3,362.2 356.5,384.3 362.7,384.3 368.9,384.3 375.1,384.3 381.2,384.3 387.4,384.3 393.6,384.3 399.8,384.3 406.0,384.3 412.2,384.3 418.4,384.3 424.5,384.3 430.7,384.3 436.9,384.3 443.1,384.3 449.3,392.9 455.5,400.0 461.6,400.0 467.8,400.0 474.0,400.0 480.2,400.0 486.4,400.0 492.6,400.0 498.8,370.9 504.9,370.9 511.1,370.9 517.3,370.9 523.5,370.9 529.7,370.9 535.9,370.9 542.1,370.9 548.2,370.9 554.4,379.0 560.6,379.0 566.8,379.0 573.0,379.0 579.2,379.0 585.3,379.0 591.5,379.0 597.7,400.0 603.9,400.0 610.1,400.0 616.3,400.0 622.5,400.0 628.6,400.0 634.8,351.3 641.0,351.3 647.2,351.3 653.4,351.3 659.6,359.3 665.7,359.3 671.9,359.3 678.1,359.3 684.3,359.3 690.5,359.3 696.7,359.3 702.9,359.3 709.0,359.3 715.2,359.3 721.4,359.3 727.6,359.3 733.8,367.6 740.0,367.6 746.2,367.6 752.3,390.5 758.5,390.5 764.7,390.5 770.9,390.5 777.1,390.5 783.3,390.5 789.4,390.5 795.6,390.5 801.8,390.5 808.0,390.5" /><polyline class="node-line" stroke="#dc2626" stroke-width="1.5" opacity="0.4" points="72.0,384.5 78.2,384.5 84.4,384.8 90.6,384.8 96.7,385.0 102.9,385.7 109.1,386.1 115.3,387.0 121.5,387.1 127.7,387.3 133.8,387.9 140.0,388.8 146.2,388.9 152.4,389.3 158.6,389.5 164.8,389.9 171.0,390.3 177.1,390.5 183.3,391.0 189.5,391.1 195.7,392.0 201.9,392.0 208.1,384.2 214.3,384.3 220.4,384.5 226.6,384.9 232.8,385.0 239.0,385.3 245.2,385.7 251.4,386.0 257.5,386.2 263.7,386.8 269.9,386.8 276.1,387.0 282.3,389.0 288.5,389.1 294.7,389.7 300.8,390.7 307.0,390.7 313.2,391.3 319.4,391.4 325.6,391.6 331.8,383.7 337.9,384.0 344.1,384.4 350.3,384.4 356.5,384.6 362.7,385.2 368.9,385.9 375.1,386.1 381.2,386.5 387.4,386.7 393.6,387.2 399.8,388.0 406.0,388.1 412.2,388.6 418.4,389.0 424.5,389.4 430.7,390.3 436.9,391.3 443.1,391.7 449.3,393.5 455.5,394.0 461.6,394.8 467.8,394.9 474.0,395.2 480.2,387.6 486.4,387.9 492.6,388.1 498.8,388.5 504.9,389.0 511.1,389.2 517.3,389.6 523.5,389.9 529.7,389.9 535.9,390.2 542.1,390.9 548.2,391.7 554.4,392.1 560.6,392.7 566.8,393.0 573.0,385.2 579.2,385.9 585.3,386.4 591.5,386.7 597.7,387.3 603.9,387.6 610.1,388.7 616.3,389.0 622.5,389.3 628.6,389.6 634.8,390.5 641.0,390.5 647.2,390.8 653.4,391.5 659.6,391.9 665.7,392.6 671.9,385.9 678.1,386.3 684.3,386.6 690.5,386.6 696.7,386.8 702.9,387.2 709.0,388.3 715.2,390.6 721.4,391.0 727.6,392.5 733.8,392.9 740.0,393.3 746.2,393.4 752.3,394.0 758.5,386.1 764.7,386.2 770.9,387.5 777.1,388.4 783.3,389.8 789.4,389.9 795.6,390.2 801.8,390.6 808.0,390.6" /><polyline class="node-line" stroke="#7c3aed" stroke-width="1.5" opacity="0.4" points="72.0,368.9 78.2,370.3 84.4,370.4 90.6,375.5 96.7,375.8 102.9,376.4 109.1,376.9 115.3,377.3 121.5,379.9 127.7,382.7 133.8,383.6 140.0,384.9 146.2,385.5 152.4,386.8 158.6,387.2 164.8,390.8 171.0,392.4 177.1,392.5 183.3,393.0 189.5,394.9 195.7,373.3 201.9,374.1 208.1,375.9 214.3,376.2 220.4,378.3 226.6,382.8 232.8,388.4 239.0,389.7 245.2,389.7 251.4,390.7 257.5,393.2 263.7,394.5 269.9,395.9 276.1,396.0 282.3,397.0 288.5,397.7 294.7,398.5 300.8,399.4 307.0,400.0 313.2,400.0 319.4,378.8 325.6,381.3 331.8,384.3 337.9,384.8 344.1,387.2 350.3,389.2 356.5,391.2 362.7,397.0 368.9,397.7 375.1,399.3 381.2,377.3 387.4,377.4 393.6,377.6 399.8,379.7 406.0,380.0 412.2,380.8 418.4,383.0 424.5,383.5 430.7,385.2 436.9,385.7 443.1,388.3 449.3,388.4 455.5,389.2 461.6,390.3 467.8,391.1 474.0,391.9 480.2,392.5 486.4,392.8 492.6,396.7 498.8,398.2 504.9,399.2 511.1,377.6 517.3,378.1 523.5,378.2 529.7,378.4 535.9,378.5 542.1,379.6 548.2,382.1 554.4,383.9 560.6,384.2 566.8,384.5 573.0,384.6 579.2,386.3 585.3,389.8 591.5,389.8 597.7,390.1 603.9,391.8 610.1,393.0 616.3,394.0 622.5,396.5 628.6,398.1 634.8,400.0 641.0,400.0 647.2,400.0 653.4,375.6 659.6,376.3 665.7,376.3 671.9,376.9 678.1,377.6 684.3,379.2 690.5,380.2 696.7,380.4 702.9,382.3 709.0,382.6 715.2,383.4 721.4,383.7 727.6,385.1 733.8,386.7 740.0,387.9 746.2,387.9 752.3,390.2 758.5,390.9 764.7,391.6 770.9,369.2 777.1,371.5 783.3,371.7 789.4,373.6 795.6,375.1 801.8,375.7 808.0,379.1" /><line x1="72" y1="384.6" x2="808" y2="384.6" class="reference-line rop" /><text x="816" y="388.6" class="reference-label">ROP 276</text><line x1="72" y1="364.0" x2="808" y2="364.0" class="reference-line stock" /><text x="816" y="368.0" class="reference-label">stock 643</text><line x1="72" y1="446" x2="96" y2="446" stroke="#0f172a" stroke-width="3" /><text x="104" y="451" class="legend">Total</text><line x1="190" y1="446" x2="214" y2="446" stroke="#2563eb" stroke-width="3" /><text x="222" y="451" class="legend">Node 1</text><line x1="308" y1="446" x2="332" y2="446" stroke="#16a34a" stroke-width="3" /><text x="340" y="451" class="legend">Node 2</text><line x1="426" y1="446" x2="450" y2="446" stroke="#f59e0b" stroke-width="3" /><text x="458" y="451" class="legend">Node 3</text><line x1="544" y1="446" x2="568" y2="446" stroke="#dc2626" stroke-width="3" /><text x="576" y="451" class="legend">Node 4</text><line x1="662" y1="446" x2="686" y2="446" stroke="#7c3aed" stroke-width="3" /><text x="694" y="451" class="legend">Node 5</text>
    
</svg>
