<?xml version="1.0" encoding="UTF-8"?>
<svg xmlns="http://www.w3.org/2000/svg" width="1180" height="696" viewBox="0 0 1180 696" role="img">
<style>

    text { font-family: Arial, Helvetica, sans-serif; fill: #0f172a; }
    .panel { fill: #ffffff; stroke: #d8dee9; stroke-width: 1.2; }
    .title { font-size: 24px; font-weight: 700; }
    .caption { font-size: 13px; fill: #475569; }
    .section-title { font-size: 16px; font-weight: 700; }
    .tick { font-size: 11px; fill: #64748b; text-anchor: end; }
    .axis line, .axis { stroke: #94a3b8; stroke-width: 1.1; }
    .grid { stroke: #e2e8f0; stroke-width: 1; }
    
    .position-line { fill: none; stroke: #15803d; stroke-width: 3.2; }
    .onhand-line { fill: none; stroke: #2563eb; stroke-width: 2.2; opacity: 0.92; }
    .position-swatch { stroke: #15803d; stroke-width: 3.2; }
    .onhand-swatch { stroke: #2563eb; stroke-width: 2.2; }
    .legend { font-size: 12px; fill: #475569; }
    .start { text-anchor: start; }
    .end { text-anchor: end; }
    .node-row-label { font-size: 13px; font-weight: 700; }
    .node-row-detail { font-size: 11px; fill: #64748b; }
    .reference-line { stroke-width: 1.6; stroke-dasharray: 6 5; }
    .reference-line.trigger { stroke: #dc2626; }
    .reference-line.stock { stroke: #0f172a; }
    .reference-label { font-size: 11px; font-weight: 700; fill: #334155; }
    .order-line { stroke: #94a3b8; stroke-width: 1; opacity: 0.26; }
    .order-marker { fill: #0f172a; opacity: 0.86; }
    .topology-divider { stroke: #d8dee9; stroke-width: 1.2; }
    .topology-title { font-size: 15px; font-weight: 700; }
    .topology-caption { font-size: 11px; fill: #64748b; }
    .topology-edge { stroke: #64748b; stroke-width: 2.1; opacity: 0.76; }
    .topology-arrow { fill: #64748b; }
    .topology-node circle { stroke-width: 1.8; }
    .topology-node.source circle { fill: #f8fafc; stroke: #64748b; }
    .topology-node.plotted circle { fill: #e0f2fe; stroke: #2563eb; }
    .topology-node.muted circle { fill: #f1f5f9; stroke: #94a3b8; }
    .topology-node-id { font-size: 13px; font-weight: 700; text-anchor: middle; }
    .topology-node-label { font-size: 9px; fill: #475569; text-anchor: middle; }
    
</style>

    <rect class="panel" x="24" y="24" width="1132" height="648" rx="16" />
    <text x="48" y="64" class="title">Daily inventory dynamics</text>
    <text x="48" y="90.0" class="caption">Published lost-sales policy, seed 0. First 120 of 359 simulated days shown for legibility. Each</text><text x="48" y="106.0" class="caption">row has its own y-scale so upstream and downstream stocking nodes can be compared; the topology</text><text x="48" y="122.0" class="caption">inset maps row numbers to echelon position.</text>
    <text x="92" y="184.0" class="node-row-label" text-anchor="end">Node 1</text><text x="92" y="204.0" class="node-row-detail" text-anchor="end">R 729 / B 2516</text><text x="100" y="172.0" class="tick">2717</text><line x1="112" y1="166.0" x2="818" y2="166.0" class="grid" /><line x1="112" y1="202.0" x2="818" y2="202.0" class="grid" /><line x1="112" y1="238.0" x2="818" y2="238.0" class="grid" /><line x1="112" y1="238" x2="818" y2="238" class="axis" /><line x1="112" y1="166" x2="112" y2="238" class="axis" /><line x1="112" y1="217.7" x2="818" y2="217.7" class="reference-line trigger" /><line x1="112" y1="171.3" x2="818" y2="171.3" class="reference-line stock" /><line x1="295.9" y1="166" x2="295.9" y2="238" class="order-line" /><polygon points="291.9,168.0 299.9,168.0 295.9,176.0" class="order-marker" /><line x1="450.2" y1="166" x2="450.2" y2="238" class="order-line" /><polygon points="446.2,168.0 454.2,168.0 450.2,176.0" class="order-marker" /><line x1="545.1" y1="166" x2="545.1" y2="238" class="order-line" /><polygon points="541.1,168.0 549.1,168.0 545.1,176.0" class="order-marker" /><line x1="634.1" y1="166" x2="634.1" y2="238" class="order-line" /><polygon points="630.1,168.0 638.1,168.0 634.1,176.0" class="order-marker" /><line x1="776.5" y1="166" x2="776.5" y2="238" class="order-line" /><polygon points="772.5,180.4 780.5,180.4 776.5,188.4" class="order-marker" /><polyline class="position-line" points="112.0,178.9 117.9,179.4 123.9,180.6 129.8,181.4 135.7,183.3 141.7,184.1 147.6,185.6 153.5,185.7 159.5,187.0 165.4,188.3 171.3,188.3 177.3,189.0 183.2,189.5 189.1,189.6 195.1,190.6 201.0,190.7 206.9,191.5 212.9,192.9 218.8,193.1 224.7,195.2 230.7,195.7 236.6,206.6 242.5,207.1 248.5,207.5 254.4,207.6 260.3,207.7 266.3,208.9 272.2,208.9 278.1,209.9 284.1,210.4 290.0,235.4 295.9,172.2 301.8,172.4 307.8,173.9 313.7,173.9 319.6,175.0 325.6,178.3 331.5,178.5 337.4,182.1 343.4,182.7 349.3,194.4 355.2,196.6 361.2,200.9 367.1,202.2 373.0,203.3 379.0,203.5 384.9,204.4 390.8,207.9 396.8,209.3 402.7,210.2 408.6,211.8 414.6,212.4 420.5,213.2 426.4,214.0 432.4,217.3 438.3,217.6 444.2,218.8 450.2,174.7 456.1,186.1 462.0,186.1 468.0,186.9 473.9,187.0 479.8,188.6 485.8,211.5 491.7,211.9 497.6,212.1 503.6,213.0 509.5,213.3 515.4,214.1 521.4,214.6 527.3,214.9 533.2,215.3 539.2,218.2 545.1,173.5 551.0,174.2 557.0,174.3 562.9,187.5 568.8,190.9 574.8,192.8 580.7,193.8 586.6,194.5 592.6,195.3 598.5,196.5 604.4,198.4 610.4,199.1 616.3,199.5 622.2,199.9 628.2,226.5 634.1,172.4 640.0,175.7 645.9,175.7 651.9,178.7 657.8,182.9 663.7,182.9 669.7,182.9 675.6,188.9 681.5,189.1 687.5,189.5 693.4,189.6 699.3,191.0 705.3,192.1 711.2,192.3 717.1,194.5 723.1,194.6 729.0,195.1 734.9,195.6 740.9,198.3 746.8,204.8 752.7,215.0 758.7,215.9 764.6,216.1 770.5,220.0 776.5,189.4 782.4,189.4 788.3,189.4 794.3,189.4 800.2,189.4 806.1,193.3 812.1,193.3 818.0,194.6" /><polyline class="onhand-line" points="112.0,178.9 117.9,179.4 123.9,180.6 129.8,181.4 135.7,183.3 141.7,184.1 147.6,185.6 153.5,185.7 159.5,187.0 165.4,188.3 171.3,188.3 177.3,189.0 183.2,189.5 189.1,189.6 195.1,190.6 201.0,190.7 206.9,191.5 212.9,192.9 218.8,193.1 224.7,195.2 230.7,195.7 236.6,206.6 242.5,207.1 248.5,207.5 254.4,207.6 260.3,207.7 266.3,208.9 272.2,208.9 278.1,209.9 284.1,210.4 290.0,235.4 295.9,236.3 301.8,236.5 307.8,238.0 313.7,238.0 319.6,175.0 325.6,178.3 331.5,178.5 337.4,182.1 343.4,182.7 349.3,194.4 355.2,196.6 361.2,200.9 367.1,202.2 373.0,203.3 379.0,203.5 384.9,204.4 390.8,207.9 396.8,209.3 402.7,210.2 408.6,211.8 414.6,212.4 420.5,213.2 426.4,214.0 432.4,217.3 438.3,217.6 444.2,218.8 450.2,222.2 456.1,233.6 462.0,233.6 468.0,234.4 473.9,234.5 479.8,188.6 485.8,211.5 491.7,211.9 497.6,212.1 503.6,213.0 509.5,213.3 515.4,214.1 521.4,214.6 527.3,214.9 533.2,215.3 539.2,218.2 545.1,220.4 551.0,221.0 557.0,221.1 562.9,234.3 568.8,190.9 574.8,192.8 580.7,193.8 586.6,194.5 592.6,195.3 598.5,196.5 604.4,198.4 610.4,199.1 616.3,199.5 622.2,199.9 628.2,226.5 634.1,227.6 640.0,230.8 645.9,230.8 651.9,233.8 657.8,238.0 663.7,238.0 669.7,238.0 675.6,188.9 681.5,189.1 687.5,189.5 693.4,189.6 699.3,191.0 705.3,192.1 711.2,192.3 717.1,194.5 723.1,194.6 729.0,195.1 734.9,195.6 740.9,198.3 746.8,204.8 752.7,215.0 758.7,215.9 764.6,216.1 770.5,220.0 776.5,238.0 782.4,238.0 788.3,238.0 794.3,238.0 800.2,238.0 806.1,193.3 812.1,193.3 818.0,194.6" /><text x="830" y="221.7" class="reference-label">trigger</text><text x="830" y="175.3" class="reference-label">target</text><text x="92" y="274.0" class="node-row-label" text-anchor="end">Node 2</text><text x="92" y="294.0" class="node-row-detail" text-anchor="end">R 276 / B 643</text><text x="100" y="262.0" class="tick">694</text><line x1="112" y1="256.0" x2="818" y2="256.0" class="grid" /><line x1="112" y1="292.0" x2="818" y2="292.0" class="grid" /><line x1="112" y1="328.0" x2="818" y2="328.0" class="grid" /><line x1="112" y1="328" x2="818" y2="328" class="axis" /><line x1="112" y1="256" x2="112" y2="328" class="axis" /><line x1="112" y1="297.9" x2="818" y2="297.9" class="reference-line trigger" /><line x1="112" y1="261.3" x2="818" y2="261.3" class="reference-line stock" /><line x1="230.7" y1="256" x2="230.7" y2="328" class="order-line" /><polygon points="226.7,258.3 234.7,258.3 230.7,266.3" class="order-marker" /><line x1="343.4" y1="256" x2="343.4" y2="328" class="order-line" /><polygon points="339.4,258.0 347.4,258.0 343.4,266.0" class="order-marker" /><line x1="450.2" y1="256" x2="450.2" y2="328" class="order-line" /><polygon points="446.2,258.0 454.2,258.0 450.2,266.0" class="order-marker" /><line x1="557.0" y1="256" x2="557.0" y2="328" class="order-line" /><polygon points="553.0,258.0 561.0,258.0 557.0,266.0" class="order-marker" /><line x1="651.9" y1="256" x2="651.9" y2="328" class="order-line" /><polygon points="647.9,258.0 655.9,258.0 651.9,266.0" class="order-marker" /><line x1="746.8" y1="256" x2="746.8" y2="328" class="order-line" /><polygon points="742.8,258.0 750.8,258.0 746.8,266.0" class="order-marker" /><polyline class="position-line" points="112.0,269.6 117.9,270.1 123.9,270.8 129.8,273.1 135.7,277.6 141.7,278.5 147.6,280.8 153.5,286.1 159.5,288.2 165.4,289.0 171.3,290.7 177.3,290.8 183.2,291.4 189.1,291.7 195.1,293.8 201.0,295.0 206.9,295.4 212.9,296.7 218.8,296.9 224.7,298.4 230.7,267.3 236.6,271.6 242.5,274.1 248.5,277.5 254.4,278.0 260.3,278.2 266.3,279.7 272.2,283.8 278.1,284.8 284.1,285.3 290.0,286.0 295.9,286.1 301.8,289.9 307.8,290.4 313.7,290.8 319.6,297.4 325.6,297.4 331.5,297.5 337.4,299.4 343.4,262.4 349.3,263.5 355.2,265.6 361.2,270.1 367.1,271.2 373.0,271.3 379.0,272.0 384.9,275.9 390.8,276.9 396.8,278.1 402.7,284.1 408.6,288.8 414.6,289.9 420.5,290.3 426.4,290.3 432.4,295.9 438.3,296.0 444.2,299.8 450.2,262.0 456.1,263.7 462.0,265.0 468.0,267.1 473.9,267.3 479.8,268.4 485.8,269.0 491.7,269.2 497.6,273.6 503.6,275.0 509.5,277.1 515.4,286.3 521.4,290.4 527.3,295.8 533.2,296.4 539.2,296.5 545.1,296.8 551.0,303.3 557.0,265.7 562.9,269.0 568.8,272.9 574.8,274.3 580.7,276.6 586.6,278.7 592.6,283.3 598.5,285.5 604.4,285.7 610.4,288.0 616.3,289.2 622.2,291.1 628.2,293.0 634.1,293.8 640.0,294.1 645.9,300.5 651.9,263.5 657.8,264.8 663.7,271.1 669.7,272.1 675.6,272.4 681.5,272.6 687.5,281.4 693.4,282.9 699.3,284.5 705.3,285.6 711.2,287.5 717.1,289.9 723.1,290.4 729.0,291.0 734.9,291.7 740.9,300.5 746.8,262.4 752.7,263.5 758.7,263.7 764.6,264.0 770.5,266.6 776.5,267.1 782.4,267.5 788.3,268.7 794.3,270.7 800.2,270.9 806.1,271.8 812.1,272.0 818.0,275.5" /><polyline class="onhand-line" points="112.0,269.6 117.9,270.1 123.9,270.8 129.8,273.1 135.7,277.6 141.7,278.5 147.6,280.8 153.5,286.1 159.5,288.2 165.4,289.0 171.3,290.7 177.3,290.8 183.2,291.4 189.1,291.7 195.1,293.8 201.0,295.0 206.9,295.4 212.9,296.7 218.8,296.9 224.7,298.4 230.7,304.4 236.6,308.7 242.5,311.2 248.5,314.6 254.4,315.1 260.3,278.2 266.3,279.7 272.2,283.8 278.1,284.8 284.1,285.3 290.0,286.0 295.9,286.1 301.8,289.9 307.8,290.4 313.7,290.8 319.6,297.4 325.6,297.4 331.5,297.5 337.4,299.4 343.4,300.4 349.3,301.6 355.2,303.7 361.2,308.2 367.1,309.3 373.0,271.3 379.0,272.0 384.9,275.9 390.8,276.9 396.8,278.1 402.7,284.1 408.6,288.8 414.6,289.9 420.5,290.3 426.4,290.3 432.4,295.9 438.3,296.0 444.2,299.8 450.2,300.4 456.1,302.2 462.0,303.4 468.0,305.6 473.9,305.8 479.8,268.4 485.8,269.0 491.7,269.2 497.6,273.6 503.6,275.0 509.5,277.1 515.4,286.3 521.4,290.4 527.3,295.8 533.2,296.4 539.2,296.5 545.1,296.8 551.0,303.3 557.0,307.7 562.9,310.9 568.8,314.9 574.8,316.3 580.7,318.6 586.6,320.7 592.6,283.3 598.5,285.5 604.4,285.7 610.4,288.0 616.3,289.2 622.2,291.1 628.2,293.0 634.1,293.8 640.0,294.1 645.9,300.5 651.9,302.7 657.8,304.0 663.7,310.3 669.7,311.3 675.6,311.6 681.5,311.8 687.5,320.6 693.4,322.1 699.3,284.5 705.3,285.6 711.2,287.5 717.1,289.9 723.1,290.4 729.0,291.0 734.9,291.7 740.9,300.5 746.8,301.7 752.7,302.7 758.7,303.0 764.6,303.2 770.5,305.8 776.5,267.1 782.4,267.5 788.3,268.7 794.3,270.7 800.2,270.9 806.1,271.8 812.1,272.0 818.0,275.5" /><text x="830" y="301.9" class="reference-label">trigger</text><text x="830" y="265.3" class="reference-label">target</text><text x="92" y="364.0" class="node-row-label" text-anchor="end">Node 3</text><text x="92" y="384.0" class="node-row-detail" text-anchor="end">R 198 / B 937</text><text x="100" y="352.0" class="tick">1011</text><line x1="112" y1="346.0" x2="818" y2="346.0" class="grid" /><line x1="112" y1="382.0" x2="818" y2="382.0" class="grid" /><line x1="112" y1="418.0" x2="818" y2="418.0" class="grid" /><line x1="112" y1="418" x2="818" y2="418" class="axis" /><line x1="112" y1="346" x2="112" y2="418" class="axis" /><line x1="112" y1="403.2" x2="818" y2="403.2" class="reference-line trigger" /><line x1="112" y1="351.3" x2="818" y2="351.3" class="reference-line stock" /><line x1="284.1" y1="346" x2="284.1" y2="418" class="order-line" /><polygon points="280.1,348.0 288.1,348.0 284.1,356.0" class="order-marker" /><line x1="479.8" y1="346" x2="479.8" y2="418" class="order-line" /><polygon points="475.8,351.4 483.8,351.4 479.8,359.4" class="order-marker" /><line x1="622.2" y1="346" x2="622.2" y2="418" class="order-line" /><polygon points="618.2,348.0 626.2,348.0 622.2,356.0" class="order-marker" /><line x1="770.5" y1="346" x2="770.5" y2="418" class="order-line" /><polygon points="766.5,348.0 774.5,348.0 770.5,356.0" class="order-marker" /><polyline class="position-line" points="112.0,358.0 117.9,358.0 123.9,358.0 129.8,358.0 135.7,358.0 141.7,358.0 147.6,358.0 153.5,358.0 159.5,358.0 165.4,358.0 171.3,358.0 177.3,358.0 183.2,358.0 189.1,358.0 195.1,358.0 201.0,358.0 206.9,386.2 212.9,386.2 218.8,386.2 224.7,386.2 230.7,396.7 236.6,396.7 242.5,396.7 248.5,396.7 254.4,396.7 260.3,396.7 266.3,396.7 272.2,396.7 278.1,418.0 284.1,351.3 290.0,351.3 295.9,351.3 301.8,351.3 307.8,351.3 313.7,351.3 319.6,351.3 325.6,351.3 331.5,359.7 337.4,359.7 343.4,359.7 349.3,369.9 355.2,369.9 361.2,369.9 367.1,369.9 373.0,369.9 379.0,369.9 384.9,398.1 390.8,398.1 396.8,398.1 402.7,398.1 408.6,398.1 414.6,398.1 420.5,398.1 426.4,398.1 432.4,398.1 438.3,398.1 444.2,398.1 450.2,398.1 456.1,398.1 462.0,398.1 468.0,398.1 473.9,409.0 479.8,360.4 485.8,360.4 491.7,360.4 497.6,360.4 503.6,360.4 509.5,360.4 515.4,360.4 521.4,380.9 527.3,380.9 533.2,380.9 539.2,380.9 545.1,380.9 551.0,380.9 557.0,380.9 562.9,380.9 568.8,380.9 574.8,391.3 580.7,391.3 586.6,391.3 592.6,391.3 598.5,391.3 604.4,391.3 610.4,391.3 616.3,418.0 622.2,351.3 628.2,351.3 634.1,351.3 640.0,351.3 645.9,351.3 651.9,356.0 657.8,356.0 663.7,356.0 669.7,356.0 675.6,366.3 681.5,366.3 687.5,366.3 693.4,366.3 699.3,366.3 705.3,366.3 711.2,366.3 717.1,366.3 723.1,366.3 729.0,366.3 734.9,366.3 740.9,366.3 746.8,376.8 752.7,376.8 758.7,376.8 764.6,405.9 770.5,351.3 776.5,351.3 782.4,351.3 788.3,351.3 794.3,351.3 800.2,351.3 806.1,351.3 812.1,351.3 818.0,351.3" /><polyline class="onhand-line" points="112.0,358.0 117.9,358.0 123.9,358.0 129.8,358.0 135.7,358.0 141.7,358.0 147.6,358.0 153.5,358.0 159.5,358.0 165.4,358.0 171.3,358.0 177.3,358.0 183.2,358.0 189.1,358.0 195.1,358.0 201.0,358.0 206.9,386.2 212.9,386.2 218.8,386.2 224.7,386.2 230.7,396.7 236.6,396.7 242.5,396.7 248.5,396.7 254.4,396.7 260.3,396.7 266.3,396.7 272.2,396.7 278.1,418.0 284.1,418.0 290.0,418.0 295.9,418.0 301.8,418.0 307.8,418.0 313.7,418.0 319.6,418.0 325.6,418.0 331.5,359.7 337.4,359.7 343.4,359.7 349.3,369.9 355.2,369.9 361.2,369.9 367.1,369.9 373.0,369.9 379.0,369.9 384.9,398.1 390.8,398.1 396.8,398.1 402.7,398.1 408.6,398.1 414.6,398.1 420.5,398.1 426.4,398.1 432.4,398.1 438.3,398.1 444.2,398.1 450.2,398.1 456.1,398.1 462.0,398.1 468.0,398.1 473.9,409.0 479.8,418.0 485.8,418.0 491.7,418.0 497.6,418.0 503.6,418.0 509.5,418.0 515.4,418.0 521.4,380.9 527.3,380.9 533.2,380.9 539.2,380.9 545.1,380.9 551.0,380.9 557.0,380.9 562.9,380.9 568.8,380.9 574.8,391.3 580.7,391.3 586.6,391.3 592.6,391.3 598.5,391.3 604.4,391.3 610.4,391.3 616.3,418.0 622.2,418.0 628.2,418.0 634.1,418.0 640.0,418.0 645.9,418.0 651.9,356.0 657.8,356.0 663.7,356.0 669.7,356.0 675.6,366.3 681.5,366.3 687.5,366.3 693.4,366.3 699.3,366.3 705.3,366.3 711.2,366.3 717.1,366.3 723.1,366.3 729.0,366.3 734.9,366.3 740.9,366.3 746.8,376.8 752.7,376.8 758.7,376.8 764.6,405.9 770.5,405.9 776.5,405.9 782.4,405.9 788.3,405.9 794.3,405.9 800.2,405.9 806.1,405.9 812.1,405.9 818.0,405.9" /><text x="830" y="407.2" class="reference-label">trigger</text><text x="830" y="355.3" class="reference-label">target</text><text x="92" y="454.0" class="node-row-label" text-anchor="end">Node 4</text><text x="92" y="474.0" class="node-row-detail" text-anchor="end">R 159 / B 308</text><text x="100" y="442.0" class="tick">333</text><line x1="112" y1="436.0" x2="818" y2="436.0" class="grid" /><line x1="112" y1="472.0" x2="818" y2="472.0" class="grid" /><line x1="112" y1="508.0" x2="818" y2="508.0" class="grid" /><line x1="112" y1="508" x2="818" y2="508" class="axis" /><line x1="112" y1="436" x2="112" y2="508" class="axis" /><line x1="112" y1="472.0" x2="818" y2="472.0" class="reference-line trigger" /><line x1="112" y1="441.3" x2="818" y2="441.3" class="reference-line stock" /><line x1="224.7" y1="436" x2="224.7" y2="508" class="order-line" /><polygon points="220.7,438.0 228.7,438.0 224.7,446.0" class="order-marker" /><line x1="343.4" y1="436" x2="343.4" y2="508" class="order-line" /><polygon points="339.4,438.0 347.4,438.0 343.4,446.0" class="order-marker" /><line x1="468.0" y1="436" x2="468.0" y2="508" class="order-line" /><polygon points="464.0,438.0 472.0,438.0 468.0,446.0" class="order-marker" /><line x1="568.8" y1="436" x2="568.8" y2="508" class="order-line" /><polygon points="564.8,438.0 572.8,438.0 568.8,446.0" class="order-marker" /><line x1="669.7" y1="436" x2="669.7" y2="508" class="order-line" /><polygon points="665.7,438.0 673.7,438.0 669.7,446.0" class="order-marker" /><line x1="740.9" y1="436" x2="740.9" y2="508" class="order-line" /><polygon points="736.9,438.1 744.9,438.1 740.9,446.1" class="order-marker" /><polyline class="position-line" points="112.0,448.2 117.9,448.2 123.9,449.3 129.8,449.4 135.7,449.8 141.7,452.8 147.6,454.4 153.5,457.8 159.5,458.3 165.4,458.9 171.3,461.3 177.3,464.9 183.2,464.9 189.1,466.7 195.1,467.5 201.0,469.0 206.9,470.5 212.9,471.4 218.8,473.2 224.7,441.7 230.7,445.1 236.6,445.2 242.5,446.9 248.5,447.3 254.4,448.1 260.3,449.6 266.3,449.9 272.2,451.2 278.1,452.8 284.1,454.1 290.0,454.5 295.9,456.8 301.8,457.1 307.8,457.8 313.7,465.5 319.6,466.0 325.6,468.2 331.5,471.9 337.4,472.1 343.4,443.6 349.3,443.8 355.2,444.8 361.2,445.0 367.1,446.1 373.0,447.6 379.0,447.8 384.9,448.6 390.8,450.9 396.8,453.3 402.7,454.3 408.6,455.9 414.6,456.4 420.5,458.5 426.4,461.5 432.4,461.9 438.3,463.8 444.2,465.6 450.2,466.8 456.1,470.6 462.0,474.4 468.0,442.9 473.9,449.7 479.8,451.7 485.8,455.0 491.7,455.1 497.6,456.4 503.6,460.0 509.5,461.2 515.4,461.9 521.4,463.5 527.3,465.6 533.2,466.3 539.2,468.0 545.1,468.8 551.0,468.9 557.0,470.1 562.9,472.7 568.8,444.5 574.8,446.3 580.7,448.6 586.6,449.4 592.6,450.9 598.5,453.6 604.4,455.6 610.4,456.7 616.3,458.8 622.2,459.9 628.2,464.2 634.1,465.4 640.0,466.5 645.9,467.9 651.9,471.2 657.8,471.4 663.7,472.4 669.7,444.0 675.6,445.6 681.5,448.5 687.5,453.5 693.4,454.9 699.3,456.1 705.3,456.4 711.2,456.8 717.1,458.4 723.1,463.0 729.0,471.6 734.9,473.4 740.9,447.1 746.8,448.5 752.7,450.0 758.7,450.6 764.6,452.8 770.5,454.4 776.5,454.5 782.4,459.6 788.3,463.1 794.3,468.6 800.2,469.1 806.1,470.3 812.1,471.5 818.0,471.7" /><polyline class="onhand-line" points="112.0,448.2 117.9,448.2 123.9,449.3 129.8,449.4 135.7,449.8 141.7,452.8 147.6,454.4 153.5,457.8 159.5,458.3 165.4,458.9 171.3,461.3 177.3,464.9 183.2,464.9 189.1,466.7 195.1,467.5 201.0,469.0 206.9,470.5 212.9,471.4 218.8,473.2 224.7,473.6 230.7,477.0 236.6,477.0 242.5,446.9 248.5,447.3 254.4,448.1 260.3,449.6 266.3,449.9 272.2,451.2 278.1,452.8 284.1,454.1 290.0,454.5 295.9,456.8 301.8,457.1 307.8,457.8 313.7,465.5 319.6,466.0 325.6,468.2 331.5,471.9 337.4,472.1 343.4,474.4 349.3,474.6 355.2,475.6 361.2,445.0 367.1,446.1 373.0,447.6 379.0,447.8 384.9,448.6 390.8,450.9 396.8,453.3 402.7,454.3 408.6,455.9 414.6,456.4 420.5,458.5 426.4,461.5 432.4,461.9 438.3,463.8 444.2,465.6 450.2,466.8 456.1,470.6 462.0,474.4 468.0,476.0 473.9,482.8 479.8,484.7 485.8,488.1 491.7,488.2 497.6,489.5 503.6,460.0 509.5,461.2 515.4,461.9 521.4,463.5 527.3,465.6 533.2,466.3 539.2,468.0 545.1,468.8 551.0,468.9 557.0,470.1 562.9,472.7 568.8,475.9 574.8,477.6 580.7,479.9 586.6,480.8 592.6,450.9 598.5,453.6 604.4,455.6 610.4,456.7 616.3,458.8 622.2,459.9 628.2,464.2 634.1,465.4 640.0,466.5 645.9,467.9 651.9,471.2 657.8,471.4 663.7,472.4 669.7,475.0 675.6,476.7 681.5,479.5 687.5,453.5 693.4,454.9 699.3,456.1 705.3,456.4 711.2,456.8 717.1,458.4 723.1,463.0 729.0,471.6 734.9,473.4 740.9,479.1 746.8,480.6 752.7,482.0 758.7,482.7 764.6,484.9 770.5,454.4 776.5,454.5 782.4,459.6 788.3,463.1 794.3,468.6 800.2,469.1 806.1,470.3 812.1,471.5 818.0,471.7" /><text x="830" y="476.0" class="reference-label">trigger</text><text x="830" y="445.3" class="reference-label">target</text><text x="92" y="544.0" class="node-row-label" text-anchor="end">Node 5</text><text x="92" y="564.0" class="node-row-detail" text-anchor="end">R 220 / B 625</text><text x="100" y="532.0" class="tick">675</text><line x1="112" y1="526.0" x2="818" y2="526.0" class="grid" /><line x1="112" y1="562.0" x2="818" y2="562.0" class="grid" /><line x1="112" y1="598.0" x2="818" y2="598.0" class="grid" /><line x1="112" y1="598" x2="818" y2="598" class="axis" /><line x1="112" y1="526" x2="112" y2="598" class="axis" /><line x1="112" y1="573.4" x2="818" y2="573.4" class="reference-line trigger" /><line x1="112" y1="531.3" x2="818" y2="531.3" class="reference-line stock" /><line x1="201.0" y1="526" x2="201.0" y2="598" class="order-line" /><polygon points="197.0,529.2 205.0,529.2 201.0,537.2" class="order-marker" /><line x1="272.2" y1="526" x2="272.2" y2="598" class="order-line" /><polygon points="268.2,528.0 276.2,528.0 272.2,536.0" class="order-marker" /><line x1="379.0" y1="526" x2="379.0" y2="598" class="order-line" /><polygon points="375.0,528.0 383.0,528.0 379.0,536.0" class="order-marker" /><line x1="473.9" y1="526" x2="473.9" y2="598" class="order-line" /><polygon points="469.9,528.0 477.9,528.0 473.9,536.0" class="order-marker" /><line x1="610.4" y1="526" x2="610.4" y2="598" class="order-line" /><polygon points="606.4,528.0 614.4,528.0 610.4,536.0" class="order-marker" /><line x1="758.7" y1="526" x2="758.7" y2="598" class="order-line" /><polygon points="754.7,528.0 762.7,528.0 758.7,536.0" class="order-marker" /><polyline class="position-line" points="112.0,538.6 117.9,541.3 123.9,541.5 129.8,551.3 135.7,551.7 141.7,553.0 147.6,553.9 153.5,554.8 159.5,559.7 165.4,565.0 171.3,566.7 177.3,569.2 183.2,570.3 189.1,572.8 195.1,573.6 201.0,538.2 206.9,541.3 212.9,541.5 218.8,542.4 224.7,546.1 230.7,547.0 236.6,548.6 242.5,551.9 248.5,552.6 254.4,556.6 260.3,565.1 266.3,575.9 272.2,533.8 278.1,533.8 284.1,535.7 290.0,540.4 295.9,543.0 301.8,545.7 307.8,545.7 313.7,547.7 319.6,549.0 325.6,550.6 331.5,552.2 337.4,553.4 343.4,553.4 349.3,557.6 355.2,562.2 361.2,568.0 367.1,569.1 373.0,573.6 379.0,535.1 384.9,539.0 390.8,550.1 396.8,551.3 402.7,554.3 408.6,554.7 414.6,554.9 420.5,555.3 426.4,559.3 432.4,559.9 438.3,561.4 444.2,565.5 450.2,566.6 456.1,569.8 462.0,570.7 468.0,575.7 473.9,531.4 479.8,533.1 485.8,535.0 491.7,536.6 497.6,538.2 503.6,539.3 509.5,539.9 515.4,547.2 521.4,550.2 527.3,552.0 533.2,555.2 539.2,556.3 545.1,556.3 551.0,556.9 557.0,557.0 562.9,559.0 568.8,563.7 574.8,567.4 580.7,567.8 586.6,568.4 592.6,568.6 598.5,571.9 604.4,578.5 610.4,531.5 616.3,532.0 622.2,535.2 628.2,537.6 634.1,539.5 640.0,544.2 645.9,547.2 651.9,550.9 657.8,550.9 663.7,550.9 669.7,551.4 675.6,552.7 681.5,552.7 687.5,553.9 693.4,555.2 699.3,558.3 705.3,560.2 711.2,560.6 717.1,564.2 723.1,564.8 729.0,566.4 734.9,567.0 740.9,569.5 746.8,572.6 752.7,574.9 758.7,531.4 764.6,535.7 770.5,537.1 776.5,538.4 782.4,539.2 788.3,543.7 794.3,544.0 800.2,547.7 806.1,550.6 812.1,551.6 818.0,558.0" /><polyline class="onhand-line" points="112.0,538.6 117.9,541.3 123.9,541.5 129.8,551.3 135.7,551.7 141.7,553.0 147.6,553.9 153.5,554.8 159.5,559.7 165.4,565.0 171.3,566.7 177.3,569.2 183.2,570.3 189.1,572.8 195.1,573.6 201.0,580.5 206.9,583.6 212.9,583.8 218.8,584.7 224.7,588.3 230.7,547.0 236.6,548.6 242.5,551.9 248.5,552.6 254.4,556.6 260.3,565.1 266.3,575.9 272.2,578.4 278.1,578.4 284.1,580.3 290.0,584.9 295.9,587.6 301.8,590.2 307.8,590.3 313.7,592.2 319.6,593.5 325.6,595.1 331.5,596.8 337.4,598.0 343.4,598.0 349.3,557.6 355.2,562.2 361.2,568.0 367.1,569.1 373.0,573.6 379.0,577.4 384.9,581.3 390.8,592.3 396.8,593.6 402.7,596.6 408.6,554.7 414.6,554.9 420.5,555.3 426.4,559.3 432.4,559.9 438.3,561.4 444.2,565.5 450.2,566.6 456.1,569.8 462.0,570.7 468.0,575.7 473.9,575.8 479.8,577.4 485.8,579.4 491.7,581.0 497.6,582.6 503.6,583.7 509.5,584.3 515.4,591.6 521.4,594.6 527.3,596.4 533.2,555.2 539.2,556.3 545.1,556.3 551.0,556.9 557.0,557.0 562.9,559.0 568.8,563.7 574.8,567.4 580.7,567.8 586.6,568.4 592.6,568.6 598.5,571.9 604.4,578.5 610.4,578.6 616.3,579.1 622.2,582.3 628.2,584.7 634.1,586.6 640.0,591.3 645.9,594.3 651.9,598.0 657.8,598.0 663.7,598.0 669.7,551.4 675.6,552.7 681.5,552.7 687.5,553.9 693.4,555.2 699.3,558.3 705.3,560.2 711.2,560.6 717.1,564.2 723.1,564.8 729.0,566.4 734.9,567.0 740.9,569.5 746.8,572.6 752.7,574.9 758.7,575.0 764.6,579.3 770.5,580.7 776.5,581.9 782.4,539.2 788.3,543.7 794.3,544.0 800.2,547.7 806.1,550.6 812.1,551.6 818.0,558.0" /><text x="830" y="577.4" class="reference-label">trigger</text><text x="830" y="535.3" class="reference-label">target</text><text x="112" y="620" class="tick start">day 1</text><text x="818" y="620" class="tick end">day 120</text><line x1="112" y1="642" x2="136" y2="642" class="position-swatch" /><text x="144" y="647" class="legend">Inventory position</text><line x1="302" y1="642" x2="326" y2="642" class="onhand-swatch" /><text x="334" y="647" class="legend">On hand</text><polygon points="446,635 456,635 451,645" class="order-marker" /><text x="466" y="647" class="legend">Reorder fired</text><line x1="612" y1="642" x2="636" y2="642" class="reference-line stock" /><text x="644" y="647" class="legend">Target</text><line x1="722" y1="642" x2="746" y2="642" class="reference-line trigger" /><text x="754" y="647" class="legend">Trigger</text>
    <g class="topology-inset"><line x1="876" y1="158" x2="876" y2="576" class="topology-divider" /><text x="900" y="168" class="topology-title">Network topology</text><text x="900" y="188" class="topology-caption">node rows map to this flow</text><defs><marker id="trace-topology-arrow" markerWidth="8" markerHeight="8" refX="7" refY="4" orient="auto" markerUnits="strokeWidth"><path d="M1,1 L7,4 L1,7 Z" class="topology-arrow" /></marker></defs><line x1="934.0" y1="258.0" x2="994.0" y2="258.0" class="topology-edge" marker-end="url(#trace-topology-arrow)" /><line x1="994.0" y1="258.0" x2="1064.0" y2="214.0" class="topology-edge" marker-end="url(#trace-topology-arrow)" /><line x1="994.0" y1="258.0" x2="1064.0" y2="302.0" class="topology-edge" marker-end="url(#trace-topology-arrow)" /><line x1="1064.0" y1="302.0" x2="994.0" y2="404.0" class="topology-edge" marker-end="url(#trace-topology-arrow)" /><line x1="1064.0" y1="302.0" x2="1064.0" y2="470.0" class="topology-edge" marker-end="url(#trace-topology-arrow)" /><g class="topology-node source"><circle cx="934.0" cy="258.0" r="16" /><text x="934.0" y="262.0" class="topology-node-id">0</text><text x="934.0" y="290.0" class="topology-node-label">source</text></g><g class="topology-node plotted"><circle cx="994.0" cy="258.0" r="16" /><text x="994.0" y="262.0" class="topology-node-id">1</text><text x="994.0" y="290.0" class="topology-node-label">regional</text></g><g class="topology-node plotted"><circle cx="1064.0" cy="214.0" r="16" /><text x="1064.0" y="218.0" class="topology-node-id">2</text><text x="1064.0" y="246.0" class="topology-node-label">customer</text></g><g class="topology-node plotted"><circle cx="1064.0" cy="302.0" r="16" /><text x="1064.0" y="306.0" class="topology-node-id">3</text><text x="1064.0" y="334.0" class="topology-node-label">transship</text></g><g class="topology-node plotted"><circle cx="994.0" cy="404.0" r="16" /><text x="994.0" y="408.0" class="topology-node-id">4</text><text x="994.0" y="436.0" class="topology-node-label">customer</text></g><g class="topology-node plotted"><circle cx="1064.0" cy="470.0" r="16" /><text x="1064.0" y="474.0" class="topology-node-id">5</text><text x="1064.0" y="502.0" class="topology-node-label">customer</text></g></g>
    
</svg>
